<svg xmlns="http://www.w3.org/2000/svg" width="534" height="256" viewBox="0 0 534 256"><defs><style>.a{fill:#ffd1a2;opacity:0;}.b{fill:none;stroke:#32424e;stroke-linecap:round;stroke-linejoin:round;stroke-width:2px;}</style></defs><g transform="translate(-617.5 -910)"><rect class="a" width="534" height="256" transform="translate(617.5 910)"/><path class="b" d="M751.357,1054.188a7.187,7.187,0,1,1-7.188-7.188A7.187,7.187,0,0,1,751.357,1054.188Zm186.475,25.239v15.989M721.8,987.453H937.832v80.739m95.34,3.208h28.893m-5.944-23.851h-11.913a3.8,3.8,0,0,0-2.892,6.27l7.742,9.085a7.084,7.084,0,0,0,5.392,2.489h7.615m-347.189-12.948,3.725.6a3.805,3.805,0,0,1,3.176,4.153l-1.061,10.114m-5.015-22.688,3.311.533a3.8,3.8,0,0,0,4.384-3.357l.153-1.454a3.8,3.8,0,0,0-3.176-4.149l-3.725-.6m4.068,32.6-1.786,16.961-4.131-.666a7.6,7.6,0,0,1-6.352-8.3l.61-5.808a3.794,3.794,0,0,1,4.386-3.354Zm265.8,11.235H827.333m46.572-11.235H995.654m-176.9,0H848.5m-73.087,11.235h-55.88m1.184-11.235h63.845m159.873-18.008A3.188,3.188,0,0,1,947.62,1047h8.5a3.187,3.187,0,0,1,0,6.374h-8.5A3.188,3.188,0,0,1,944.434,1050.184Zm65.315-16.713L971.5,1001.009a15.255,15.255,0,0,0-9.883-3.629H948.236a3.8,3.8,0,0,0-3.8,3.8v35.189a3.8,3.8,0,0,0,3.8,3.8h59.053a3.8,3.8,0,0,0,2.46-6.7ZM744.482,997.38a3.8,3.8,0,0,0-3.779,3.4L737,1035.97a3.8,3.8,0,0,0,3.784,4.2H918.067a3.8,3.8,0,0,0,3.784-3.4l3.693-35.189a3.808,3.808,0,0,0-3.783-4.2Zm129.494,70.664a3.8,3.8,0,0,1-3.8,3.8H852.3a3.8,3.8,0,0,1-3.8-3.8v-7.3a3.8,3.8,0,0,1,3.8-3.8h17.876a3.8,3.8,0,0,1,3.8,3.8ZM718.93,1085.153,761.389,1092q3.705.6,7.424,1.075a3.8,3.8,0,0,0,4.288-3.62,28.292,28.292,0,0,1,56.546,2.036,3.8,3.8,0,0,0,3.8,3.924H980.4a3.8,3.8,0,0,0,3.8-3.924,28.279,28.279,0,0,1,56.45-3.161,3.8,3.8,0,0,0,4.338,3.468c5.02-.729,12.511-1.831,12.511-1.831a7.594,7.594,0,0,0,6.41-8.384l-2.762-24.116a15.956,15.956,0,0,0-9.2-12.694l-20.566-9.441a90.032,90.032,0,0,1-20.789-13.237l-46.121-39.14a22.75,22.75,0,0,0-14.718-5.4H729.862a7.6,7.6,0,0,0-7.562,6.808l-8.717,82.939M839.016,962.629H794.9a9.278,9.278,0,0,0,0,14.925h44.118a9.282,9.282,0,0,0,0-14.925Zm-16.939,128.043a20.7,20.7,0,1,1-20.7-20.7A20.7,20.7,0,0,1,822.077,1090.672Zm211.095,0a20.7,20.7,0,1,1-20.7-20.7A20.7,20.7,0,0,1,1033.172,1090.672Z"/></g></svg>