<svg xmlns="http://www.w3.org/2000/svg" width="534" height="256" viewBox="0 0 534 256"><defs><style>.a{fill:#ffd1a2;opacity:0;}.b{fill:none;stroke:#32424e;stroke-linecap:round;stroke-linejoin:round;stroke-width:2px;}</style></defs><g transform="translate(-61 -910.333)"><rect class="a" width="534" height="256" transform="translate(61 910.333)"/><path class="b" d="M437.931,997.251A2.93,2.93,0,0,0,435,1000.18v47.693a2.931,2.931,0,0,0,2.932,2.932h62.461a2.931,2.931,0,0,0,2.93-2.932v-5.993a12.883,12.883,0,0,0-1.259-5.556l-17.9-37.41a2.931,2.931,0,0,0-2.644-1.663Zm81.251,37.539-4.317,2.545a2.93,2.93,0,0,1-4.133-1.256L492.4,997.772a2.928,2.928,0,0,1,1.155-3.789l4.754-2.8m-198.884,94.791a2.93,2.93,0,0,1-2.929,2.932H286.078a2.931,2.931,0,0,1-2.93-2.932v-12.418a2.93,2.93,0,0,1,2.93-2.93h13.35Zm-169.735-9.939h95.385m45.721,0h12.349m16.28,0h166.1m45.714,0h13.138a5.712,5.712,0,0,0,5.712-5.712v-5.1m-305.574-30.273a2.933,2.933,0,0,1-2.932,2.932H162.066a2.932,2.932,0,0,1-2.932-2.932v-36.87a2.932,2.932,0,0,1,2.932-2.929H221.59a2.932,2.932,0,0,1,2.932,2.929Zm-88.8,41.54V986.643m112.221,0v77.348m51.489,6.632v-83.98m127.9,0v89.389m-74.885,23.84h-38.1v-8.136h38.1Zm0-8.136h-38.1V1000.18a2.93,2.93,0,0,1,2.93-2.929h32.244a2.929,2.929,0,0,1,2.929,2.929Zm65.507-44.017a2.928,2.928,0,0,1-2.929,2.929H364.758a2.93,2.93,0,0,1-2.932-2.929v-36.875a2.933,2.933,0,0,1,2.932-2.932h50.266a2.93,2.93,0,0,1,2.929,2.932Zm107.54-.357-32.3-67.5a11.975,11.975,0,0,0-10.8-6.807H134.861A5.863,5.863,0,0,0,129,978.916v95.81a5.869,5.869,0,0,0,2.98,5.105,123.92,123.92,0,0,0,61.033,16.071H217.29a2.935,2.935,0,0,0,2.93-3.074c-.018-.364-.026-.73-.026-1.1a27.745,27.745,0,1,1,55.086,4.712,2.929,2.929,0,0,0,2.892,3.429H458.157a2.932,2.932,0,0,0,2.891-3.429,27.745,27.745,0,1,1,54.686,0,2.927,2.927,0,0,0,2.889,3.429h5.609a5.862,5.862,0,0,0,5.864-5.861v-26.373A46.965,46.965,0,0,0,525.493,1047.362Zm-15.213,44.374a21.886,21.886,0,1,1-21.889-21.883A21.89,21.89,0,0,1,510.28,1091.736Zm-240.457,0a21.882,21.882,0,1,1-21.884-21.883A21.884,21.884,0,0,1,269.823,1091.736Z"/><path class="b" d="M323.625,1051.984a2.961,2.961,0,0,1-2.96-2.96v-7.148a2.96,2.96,0,1,1,5.92,0v7.148a2.961,2.961,0,0,1-2.96,2.96"/><path class="b" d="M323.625,1051.984a2.961,2.961,0,0,1-2.96-2.96v-7.148a2.96,2.96,0,1,1,5.92,0v7.148A2.961,2.961,0,0,1,323.625,1051.984Z"/><path class="b" d="M402.373,1099.871v-23.837m49.921,0v23.837m-20.321-20.85a2.932,2.932,0,0,1-2.932,2.932h-3.42a2.93,2.93,0,0,1-2.929-2.932v-2.992h9.281Zm-29.6-2.987v23.837m0-23.837v23.837m-20.319-20.85a2.936,2.936,0,0,1-2.932,2.935H375.7a2.934,2.934,0,0,1-2.932-2.935v-2.992h9.287ZM204.171,973.051a7.154,7.154,0,0,0,0-11.506H161.43a7.158,7.158,0,0,0,0,11.506m236.666,0a7.151,7.151,0,0,0,0-11.506H355.355a7.161,7.161,0,0,0,0,11.506m-122.122,0V968.38a2.933,2.933,0,0,1,2.932-2.932h39.322a2.933,2.933,0,0,1,2.932,2.932v4.671m5.985,28.058a2.933,2.933,0,0,1-2.93,2.935H269.5a2.934,2.934,0,0,1-2.932-2.935v-4.883a2.934,2.934,0,0,1,2.932-2.935h11.97a2.933,2.933,0,0,1,2.93,2.935Zm61.733,29.254a2.93,2.93,0,0,1-2.93,2.93H323.594a2.93,2.93,0,0,1-2.93-2.93v-23.4a2.931,2.931,0,0,1,2.93-2.932h19.613a2.931,2.931,0,0,1,2.93,2.932Zm183.046,28.086-10.826-3.611a3.957,3.957,0,0,0-4.418,6.129l1.9,2.533a17.823,17.823,0,0,0,14.258,7.127"/><path class="b" d="M429.465,984.508a2.134,2.134,0,0,1-2.133,2.133h-127.9a2.134,2.134,0,0,1,0-4.269h127.9a2.135,2.135,0,0,1,2.136,2.136"/><path class="b" d="M429.465,984.508a2.134,2.134,0,0,1-2.133,2.133h-127.9a2.134,2.134,0,0,1,0-4.269h127.9A2.135,2.135,0,0,1,429.465,984.508Z"/><path class="b" d="M250.079,984.508a2.135,2.135,0,0,1-2.134,2.133H135.716a2.134,2.134,0,1,1,0-4.269H247.943a2.136,2.136,0,0,1,2.136,2.136"/><path class="b" d="M250.079,984.508a2.135,2.135,0,0,1-2.134,2.133H135.716a2.134,2.134,0,1,1,0-4.269H247.943A2.136,2.136,0,0,1,250.079,984.508Z"/></g></svg>