<svg xmlns="http://www.w3.org/2000/svg" width="534" height="256" viewBox="0 0 534 256"><defs><style>.a{fill:#ffd1a2;opacity:0;}.b{fill:none;stroke:#32424e;stroke-linecap:round;stroke-linejoin:round;stroke-width:2px;}</style></defs><g transform="translate(-61 -628.333)"><rect class="a" width="534" height="256" transform="translate(61 628.333)"/><path class="b" d="M159.419,799.307v-96m242.959,0v25.568m114.057,63.622H507.1a6.373,6.373,0,0,1-5.474-3.108l-2.948-4.936a2.258,2.258,0,0,1,1.941-3.415h11.817M440.3,741.474a15.192,15.192,0,0,0-10.316-4.036H413.809a3.517,3.517,0,0,0-3.518,3.518v29.511a3.519,3.519,0,0,0,3.518,3.518h49.925a3.519,3.519,0,0,0,3.518-3.518v-2.553a3.505,3.505,0,0,0-1.13-2.584Zm-.55-12.6H402.378V823.33m-12.191,0H352.229v-8.724h37.958Zm0-8.724H352.229v-8.732h37.958Zm-5.732-70.474a3.519,3.519,0,0,1-3.518,3.521h-19.46a3.522,3.522,0,0,1-3.521-3.521v-22.9a3.521,3.521,0,0,1,3.521-3.52h19.46a3.518,3.518,0,0,1,3.518,3.52Zm42.931-25.494a2.952,2.952,0,0,1,2.95-2.953H438.2a2.952,2.952,0,1,1,0,5.9h-7.869A2.951,2.951,0,0,1,427.386,718.638Zm-37.2,87.234H352.232v-90.6a3.52,3.52,0,0,1,3.518-3.521h30.919a3.52,3.52,0,0,1,3.518,3.521Zm-87.718-46.495a3.52,3.52,0,0,1-3.52,3.52H255.726a3.52,3.52,0,0,1-3.518-3.52V721.24a3.517,3.517,0,0,1,3.518-3.518h43.223a3.518,3.518,0,0,1,3.52,3.518Zm-68.928.005a3.521,3.521,0,0,1-3.521,3.518H186.8a3.521,3.521,0,0,1-3.518-3.518V730.043a3.521,3.521,0,0,1,3.518-3.521H230.02a3.522,3.522,0,0,1,3.521,3.521Zm44.336-88.342h-40.85a8.6,8.6,0,0,0,0,13.824h40.85a8.6,8.6,0,0,0,0-13.824ZM493.108,817.362A19.163,19.163,0,1,1,473.945,798.2,19.166,19.166,0,0,1,493.108,817.362Zm-218.025,0A19.162,19.162,0,1,1,255.92,798.2,19.164,19.164,0,0,1,275.083,817.362Z"/><path class="b" d="M404.944,700.746a2.562,2.562,0,0,1-2.562,2.562H159.416a2.565,2.565,0,1,1,.005-5.13H402.377a2.566,2.566,0,0,1,2.567,2.568"/><path class="b" d="M404.944,700.746a2.562,2.562,0,0,1-2.562,2.562H159.416a2.565,2.565,0,1,1,.005-5.13H402.377A2.566,2.566,0,0,1,404.944,700.746Z"/><path class="b" d="M360.909,771.586a2.951,2.951,0,0,1-2.951-2.953v-6.867a2.951,2.951,0,1,1,5.9,0v6.867A2.952,2.952,0,0,1,360.909,771.586ZM147.147,808.671a6.979,6.979,0,0,0,2.57.985l66.741,11.353q4.673.792,9.388,1.317a3.528,3.528,0,0,0,3.906-3.675c-.022-.43-.034-.86-.034-1.293a26.2,26.2,0,0,1,52.406,0c0,.723-.032,1.435-.094,2.145a3.52,3.52,0,0,0,3.514,3.825H444.325a3.523,3.523,0,0,0,3.51-3.825c-.064-.71-.093-1.422-.093-2.145a26.193,26.193,0,1,1,52.386.16,3.529,3.529,0,0,0,4.084,3.518c2.218-.361,4.429-.759,6.631-1.223a7.04,7.04,0,0,0,5.591-6.892v-21.5a15.546,15.546,0,0,0-8.766-14l-32.353-15.7-35.57-32.857H457.67a11.91,11.91,0,0,0,6.739-21.728l-28.243-19.377a55.924,55.924,0,0,0-31.647-9.815H382.29a181.745,181.745,0,0,0-49.647,6.913H150.9a7.041,7.041,0,0,0-7.041,7.042V795.785m131.223,3.521h12.274m25.13,0h7.489m25.13,0h7.164m37.919,0h64.594m38.326,0h23.325m-363.713,0h84.038m108.347,6.614a3.521,3.521,0,0,1-3.52,3.52H323.5a3.523,3.523,0,0,1-3.523-3.52v-9.9A3.523,3.523,0,0,1,323.5,792.5h18.09a3.522,3.522,0,0,1,3.52,3.521ZM326.968,792.7v1.949a3.521,3.521,0,0,0,3.52,3.523H334.6a3.518,3.518,0,0,0,3.521-3.523V792.5m-25.63,13.422a3.522,3.522,0,0,1-3.52,3.518H290.875a3.522,3.522,0,0,1-3.521-3.518v-9.9a3.522,3.522,0,0,1,3.521-3.52h18.092a3.521,3.521,0,0,1,3.52,3.52ZM294.349,792.5v2.157a3.52,3.52,0,0,0,3.523,3.523h4.108a3.519,3.519,0,0,0,3.518-3.523V792.5M140.7,805.15a3.52,3.52,0,0,0,3.521,3.521H149.2a3.521,3.521,0,0,0,3.521-3.521v-5.844a3.522,3.522,0,0,0-3.521-3.521h-4.982a3.522,3.522,0,0,0-3.521,3.521Z"/></g></svg>