<svg id="Group_61" data-name="Group 61" xmlns="http://www.w3.org/2000/svg" xmlns:xlink="http://www.w3.org/1999/xlink" width="11.254" height="15" viewBox="0 0 11.254 15">
  <defs>
    <clipPath id="clip-path">
      <rect id="Rectangle_64" data-name="Rectangle 64" width="11.254" height="15" fill="#f91313"/>
    </clipPath>
  </defs>
  <g id="Group_60" data-name="Group 60" clip-path="url(#clip-path)">
    <path id="Path_5132" data-name="Path 5132" d="M5.719,15H5.543c-.052-.049-.106-.1-.157-.148a27.652,27.652,0,0,1-2.951-3.439A15.587,15.587,0,0,1,.52,8.039,5.835,5.835,0,0,1,.158,4.347,5.526,5.526,0,0,1,4.275.174C4.591.086,4.924.056,5.25,0h.762L6.27.034A5.548,5.548,0,0,1,10.4,2.656a5.37,5.37,0,0,1,.8,3.666A8.207,8.207,0,0,1,10.4,8.828a18.668,18.668,0,0,1-2.2,3.425A26.519,26.519,0,0,1,5.719,15m2.49-9.375A2.578,2.578,0,1,0,5.656,8.2,2.58,2.58,0,0,0,8.209,5.625" transform="translate(0)" fill="#f91313"/>
  </g>
</svg>
