<svg xmlns="http://www.w3.org/2000/svg" width="534" height="256" viewBox="0 0 534 256"><defs><style>.a{fill:#ffd1a2;opacity:0;}.b{fill:none;stroke:#32424e;stroke-linecap:round;stroke-linejoin:round;stroke-width:2px;}</style></defs><g transform="translate(-617.5 -346)"><rect class="a" width="534" height="256" transform="translate(617.5 346)"/><path class="b" d="M1034.732,517.043h53.016a3.238,3.238,0,0,1,3.239,3.242v.627a3.24,3.24,0,0,1-3.239,3.242h-53.016m37.653,19.338a6.694,6.694,0,1,1-6.7-6.691A6.7,6.7,0,0,1,1072.385,543.492Zm-193.64-18.7H913.7m0,7.754H878.747v-15.5H913.7ZM907.864,460.2a3.24,3.24,0,0,1-3.242,3.239h-16.8a3.239,3.239,0,0,1-3.239-3.239V439.849a3.241,3.241,0,0,1,3.239-3.239h16.8a3.241,3.241,0,0,1,3.242,3.239Zm5.832,56.84H878.747V433.626a3.245,3.245,0,0,1,3.243-3.242h28.464a3.244,3.244,0,0,1,3.242,3.242Zm161.422-36.781a2.717,2.717,0,0,1,2.717-2.717h7.243a2.717,2.717,0,1,1,0,5.434h-7.243A2.716,2.716,0,0,1,1075.118,480.262ZM791.683,512.873V422.3m234.405.52v76.009m0,22.287a3.244,3.244,0,0,1-3.242,3.242H985.471a3.243,3.243,0,0,1-3.24-3.242V498.085a3.241,3.241,0,0,1,3.24-3.239h37.375a3.241,3.241,0,0,1,3.242,3.239Zm-53.693,0a3.243,3.243,0,0,1-3.239,3.242H931.781a3.244,3.244,0,0,1-3.242-3.242V498.085a3.241,3.241,0,0,1,3.242-3.239h37.375a3.241,3.241,0,0,1,3.239,3.239ZM860.539,488.324a3.24,3.24,0,0,1-3.24,3.24H808.857a3.24,3.24,0,0,1-3.24-3.24V446.032a3.241,3.241,0,0,1,3.24-3.242H857.3a3.241,3.241,0,0,1,3.24,3.242Zm-81.15,0a3.24,3.24,0,0,1-3.239,3.24H732.626a3.241,3.241,0,0,1-3.242-3.24V453.818a3.241,3.241,0,0,1,3.242-3.24H776.15a3.24,3.24,0,0,1,3.239,3.24ZM1065.06,474.39a3.241,3.241,0,0,1-3.239,3.24h-23.85a3.243,3.243,0,0,1-3.242-3.24V429.22a3.243,3.243,0,0,1,3.242-3.24h23.85a3.241,3.241,0,0,1,3.239,3.24ZM672.82,500.578v25.487a6.488,6.488,0,0,0,6.484,6.482H783.42c1.637,0,1.033-1.23,1.224-2.857a24.092,24.092,0,0,1,39.891-15.22,3.24,3.24,0,0,0,2.145.814h5.966a3.245,3.245,0,0,0,2.148-.817,24.09,24.09,0,0,1,39.885,15.223,3.233,3.233,0,0,0,3.22,2.857H1028.25a6.484,6.484,0,0,0,6.482-6.482V489.922h52.461a17.215,17.215,0,0,0,17.215-17.219,69.676,69.676,0,0,0-69.676-69.671H887.59L678.812,418.971a6.475,6.475,0,0,0-5.992,6.464v58.808m88.739-84.352-23.568,1.735-13.937,1.017a7.922,7.922,0,0,0,.931,12.7l13.939-1.025,23.57-1.734a7.911,7.911,0,0,0-.935-12.693ZM868.367,532.547A17.644,17.644,0,1,1,850.721,514.9,17.647,17.647,0,0,1,868.367,532.547Zm-42.118,0A17.644,17.644,0,1,1,808.6,514.9,17.646,17.646,0,0,1,826.249,532.547Z"/><path class="b" d="M1028.445,419.939a2.357,2.357,0,0,1-2.358,2.359H791.68a2.361,2.361,0,0,1,0-4.723h234.4a2.363,2.363,0,0,1,2.363,2.364"/><path class="b" d="M1072.383,543.494a6.693,6.693,0,1,1-6.693-6.7M887.295,483.338a2.717,2.717,0,0,1-2.715-2.715V474.3a2.717,2.717,0,0,1,2.715-2.717h.005a2.717,2.717,0,0,1,2.714,2.717v6.323a2.717,2.717,0,0,1-2.714,2.715Zm121.152,11.5v2.764a2.7,2.7,0,0,1-2.707,2.705h-3.158a2.7,2.7,0,0,1-2.707-2.705v-2.764m-45.123,0v2.764a2.7,2.7,0,0,1-2.707,2.705h-3.16a2.7,2.7,0,0,1-2.705-2.705v-2.764M972.4,521.116a3.244,3.244,0,0,1-3.24,3.242H931.778a3.243,3.243,0,0,1-3.239-3.242V498.085a3.242,3.242,0,0,1,3.239-3.24h37.378a3.242,3.242,0,0,1,3.24,3.24ZM928.91,403.031v-2.789A3.243,3.243,0,0,0,925.667,397H894.545a3.243,3.243,0,0,0-3.242,3.242v2.789M672.99,518.093h-1.759a3.239,3.239,0,0,1-3.24-3.24v-3.665a3.24,3.24,0,0,1,3.24-3.242h1.759m5-10.6a3.243,3.243,0,0,1-3.24,3.244h-3.515a3.244,3.244,0,0,1-3.24-3.244v-9.856a3.243,3.243,0,0,1,3.24-3.242h3.515a3.242,3.242,0,0,1,3.24,3.242Zm116.686,15.528H672.821m205.924,0H864.67m63.869,0H913.7m68.537,0h-9.567m62.065,0h-8.644"/><path class="b" d="M1069.258,537.756a.473.473,0,0,1-.316-.45V524.154h3.441v17.817a.009.009,0,0,1-.01.01s-.01,0-.01-.005a13.492,13.492,0,0,1-.567-1.291,7.408,7.408,0,0,0-1.113-2.065,3.755,3.755,0,0,0-1.425-.864"/><path class="b" d="M1069.258,537.756a.473.473,0,0,1-.316-.45V524.154h3.441v17.817a.009.009,0,0,1-.01.01s-.01,0-.01-.005a13.492,13.492,0,0,1-.567-1.291,7.408,7.408,0,0,0-1.113-2.065A3.755,3.755,0,0,0,1069.258,537.756Z"/><path class="b" d="M1068.941,517.044V505.1a1.721,1.721,0,0,1,3.443,0v11.943Z"/><path class="b" d="M1068.941,517.044V505.1a1.721,1.721,0,0,1,3.443,0v11.943Z"/></g></svg>