<svg xmlns="http://www.w3.org/2000/svg" xmlns:xlink="http://www.w3.org/1999/xlink" width="15" height="11.241" viewBox="0 0 15 11.241">
  <defs>
    <clipPath id="clip-path">
      <rect id="Rectangle_66" data-name="Rectangle 66" width="15" height="11.241" transform="translate(0 0)" fill="#f91313"/>
    </clipPath>
  </defs>
  <g id="Group_67" data-name="Group 67" transform="translate(-1260 -6032.533)">
    <g id="Group_66" data-name="Group 66" transform="translate(1260 6032.533)">
      <g id="Group_65" data-name="Group 65" transform="translate(0 0)" clip-path="url(#clip-path)">
        <path id="Path_5134" data-name="Path 5134" d="M15,80.87v6.885c-.006.008-.014.015-.016.024a1.388,1.388,0,0,1-1.5,1.172H7.434q-2.988,0-5.975,0A1.444,1.444,0,0,1,.42,88.558a1.551,1.551,0,0,1-.42-.8V80.87a.4.4,0,0,1,.065.029l6.076,4.052a2.259,2.259,0,0,0,2.718,0l5.431-3.62c.235-.156.473-.307.709-.461" transform="translate(0 -77.711)" fill="#f91313"/>
        <path id="Path_5135" data-name="Path 5135" d="M0,1.576V1.2c.024-.084.045-.168.073-.251A1.394,1.394,0,0,1,1.474,0H13.527c.044,0,.088,0,.132,0a1.384,1.384,0,0,1,1.268.944c.028.082.049.167.073.25v.381a1.48,1.48,0,0,1-.626.933Q11.339,4.526,8.308,6.55A1.363,1.363,0,0,1,6.68,6.542L.627,2.507a1.329,1.329,0,0,1-.6-.879A.233.233,0,0,0,0,1.576" transform="translate(0 0.001)" fill="#f91313"/>
      </g>
    </g>
  </g>
</svg>
